{"title":"How I Met Your Mother Season 8 WEB-DL XviD - DiGrX","uid":9059781,"size":4878593070,"categoryP":"video","categoryS":"tv_shows","magnet":"?xt=urn:btih:642e71c7bd431fb7e1177c5508c9f7a183ad37db&amp;dn=How+I+Met+Your+Mother+Season+8+WEB-DL+XviD+-+DiGrX&amp;tr=udp%3A%2F%2Ftracker.openbittorrent.com%3A80&amp;tr=udp%3A%2F%2Fopen.demonii.com%3A1337&amp;tr=udp%3A%2F%2Ftracker.coppersurfer.tk%3A6969&amp;tr=udp%3A%2F%2Fexodus.desync.com%3A6969","seeders":10,"leechers":5,"uploader":"dimigeor","files":25,"time":1382023710,"description":"How I Met Your Mother Season 8 WEB-DL XviD - DiGrX\n\nAll episodes in XviD from WEB-DL\n\nCodec ID, Format: XVID, MPEG-4\nAspect ratio, Dimension: 16:9, 720x400\nAudio: MP3, 2 Channels\n\n\n-----------------------------------------------------------------------------------\n\n\nEpisode 1 example:\n\nGeneral\nComplete name                            : 8x01 How I Met Your Mother - Farhampton WEB-DL.avi\nFormat                                   : AVI\nFormat/Info                              : Audio Video Interleave\nFile size                                : 196 MiB\nDuration                                 : 21mn 38s\nOverall bit rate mode                    : Variable\nOverall bit rate                         : 1 265 Kbps\nWriting application                      : MEncoder r33883\nWriting library                          : MPlayer\n\nVideo\nID                                       : 0\nFormat                                   : MPEG-4 Visual\nFormat profile                           : Simple@L3\nFormat settings, BVOP                    : No\nFormat settings, QPel                    : No\nFormat settings, GMC                     : No warppoints\nFormat settings, Matrix                  : Default (H.263)\nCodec ID                                 : XVID\nCodec ID/Hint                            : XviD\nDuration                                 : 21mn 38s\nBit rate                                 : 1 129 Kbps\nWidth                                    : 720 pixels\nHeight                                   : 400 pixels\nDisplay aspect ratio                     : 16:9\nFrame rate                               : 23.976 fps\nColor space                              : YUV\nChroma subsampling                       : 4:2:0\nBit depth                                : 8 bits\nScan type                                : Progressive\nCompression mode                         : Lossy\nBits/(Pixel*Frame)                       : 0.163\nStream size                              : 175 MiB (89%)\nWriting library                          : XviD 63\n\nAudio\nID                                       : 1\nFormat                                   : MPEG Audio\nFormat version                           : Version 1\nFormat profile                           : Layer 3\nMode                                     : Joint stereo\nCodec ID                                 : 55\nCodec ID/Hint                            : MP3\nDuration                                 : 21mn 38s\nBit rate mode                            : Variable\nBit rate                                 : 123 Kbps\nChannel(s)                               : 2 channels\nSampling rate                            : 48.0 KHz\nCompression mode                         : Lossy\nStream size                              : 19.1 MiB (10%)\nAlignment                                : Aligned on interleaves\nInterleave, duration                     : 24 ms (0.58 video frame)\nInterleave, preload duration             : 479 ms\n\n\n-----------------------------------------------------------------------------------\n","torrent":{"xt":"urn:btih:642e71c7bd431fb7e1177c5508c9f7a183ad37db","amp;dn":"How+I+Met+Your+Mother+Season+8+WEB-DL+XviD+-+DiGrX","amp;tr":["udp%3A%2F%2Ftracker.openbittorrent.com%3A80","udp%3A%2F%2Fopen.demonii.com%3A1337","udp%3A%2F%2Ftracker.coppersurfer.tk%3A6969","udp%3A%2F%2Fexodus.desync.com%3A6969"],"infoHash":"642e71c7bd431fb7e1177c5508c9f7a183ad37db","infoHashBuffer":{"type":"Buffer","data":[100,46,113,199,189,67,31,183,225,23,124,85,8,201,247,161,131,173,55,219]},"announce":[],"urlList":[]}}